<svg width="107" height="23" viewBox="0 0 107 23" fill="none" xmlns="http://www.w3.org/2000/svg">
<path d="M-1.09673e-05 10.08V5.75999H2.07999V2.23999H7.51999V5.75999H11.84V10.08H7.51999V18.08H12.16V22.4H2.07999V10.08H-1.09673e-05ZM15.6535 20.48C14.2242 18.8587 13.5095 16.7253 13.5095 14.08C13.5095 11.4347 14.2242 9.31199 15.6535 7.71199C17.0828 6.09066 18.8215 5.27999 20.8695 5.27999C22.1922 5.27999 23.4402 5.73866 24.6135 6.65599C25.1042 7.06133 25.5095 7.50933 25.8295 7.99999H26.1495V5.75999H31.5895V22.4H26.1495V20.16H25.8295C25.5308 20.672 25.1255 21.1307 24.6135 21.536C23.4615 22.432 22.2135 22.88 20.8695 22.88C18.8215 22.88 17.0828 22.08 15.6535 20.48ZM20.0695 11.008C19.4295 11.7333 19.1095 12.7573 19.1095 14.08C19.1095 15.4027 19.4295 16.4267 20.0695 17.152C20.7095 17.8773 21.5628 18.24 22.6295 18.24C23.6962 18.24 24.5495 17.8773 25.1895 17.152C25.8295 16.4267 26.1495 15.4027 26.1495 14.08C26.1495 12.7573 25.8295 11.7333 25.1895 11.008C24.5495 10.2827 23.6962 9.91999 22.6295 9.91999C21.5628 9.91999 20.7095 10.2827 20.0695 11.008ZM33.4065 16.96H38.8465C38.9318 17.28 39.1132 17.5787 39.3905 17.856C39.9665 18.432 40.7985 18.72 41.8865 18.72C43.3798 18.72 44.1265 18.3467 44.1265 17.6C44.1265 17.2587 43.9132 16.992 43.4865 16.8C43.0598 16.5867 42.4198 16.3733 41.5665 16.16C40.8625 15.9893 40.4038 15.8827 40.1905 15.84C39.9772 15.7973 39.5292 15.68 38.8465 15.488C38.1638 15.2747 37.6732 15.0933 37.3745 14.944C37.0972 14.7733 36.7025 14.5387 36.1905 14.24C35.6998 13.92 35.3372 13.6 35.1025 13.28C34.8892 12.9387 34.6865 12.5227 34.4945 12.032C34.3025 11.52 34.2065 10.976 34.2065 10.4C34.2065 8.99199 34.8358 7.78666 36.0945 6.78399C37.3532 5.78133 39.1238 5.27999 41.4065 5.27999C44.2652 5.27999 46.5265 6.21866 48.1905 8.09599C48.8518 8.90666 49.3105 9.83466 49.5665 10.88H44.2865C44.1585 10.5387 44.0092 10.272 43.8385 10.08C43.3478 9.54666 42.6438 9.27999 41.7265 9.27999C40.4465 9.27999 39.8065 9.65333 39.8065 10.4C39.8065 10.7627 40.0198 11.04 40.4465 11.232C40.8732 11.424 41.5238 11.6053 42.3985 11.776C44.5958 12.288 46.0785 12.736 46.8465 13.12C48.7665 14.0587 49.7265 15.4987 49.7265 17.44C49.7265 18.976 49.0438 20.2667 47.6785 21.312C46.3345 22.3573 44.4038 22.88 41.8865 22.88C38.7932 22.88 36.4358 21.8987 34.8145 19.936C34.0892 19.0613 33.6198 18.0693 33.4065 16.96ZM51.7085 22.4V-7.62939e-06H57.1485V11.68H58.9085L62.5885 5.75999H68.3485L63.5485 13.6L68.8285 22.4H62.9085L59.2285 16.32H57.1485V22.4H51.7085ZM70.9065 20.288C69.1358 18.56 68.2505 16.4907 68.2505 14.08C68.2505 11.6693 69.1358 9.59999 70.9065 7.87199C72.6772 6.14399 74.8318 5.27999 77.3705 5.27999C79.9518 5.27999 82.1172 6.14399 83.8665 7.87199C85.6158 9.59999 86.4905 11.6693 86.4905 14.08V15.04H73.8505C74.0212 16.1707 74.4052 17.0453 75.0025 17.664C75.6212 18.2613 76.4105 18.56 77.3705 18.56C78.5012 18.56 79.3545 18.272 79.9305 17.696C80.1865 17.4613 80.3998 17.1627 80.5705 16.8H86.3305C85.9465 17.9733 85.3705 18.9867 84.6025 19.84C82.9172 21.8667 80.5065 22.88 77.3705 22.88C74.8318 22.88 72.6772 22.016 70.9065 20.288ZM74.0105 12.32H80.7305C80.5385 11.552 80.1438 10.912 79.5465 10.4C78.9492 9.86666 78.2238 9.59999 77.3705 9.59999C76.5172 9.59999 75.7918 9.86666 75.1945 10.4C74.5972 10.912 74.2025 11.552 74.0105 12.32ZM90.1465 20.48C88.7172 18.8587 88.0025 16.7253 88.0025 14.08C88.0025 11.4347 88.7172 9.31199 90.1465 7.71199C91.5758 6.09066 93.3145 5.27999 95.3625 5.27999C96.6852 5.27999 97.9332 5.73866 99.1065 6.65599C99.5972 7.06133 100.002 7.50933 100.322 7.99999H100.642V-7.62939e-06H106.082V22.4H100.642V20.16H100.322C100.024 20.672 99.6185 21.1307 99.1065 21.536C97.9545 22.432 96.7065 22.88 95.3625 22.88C93.3145 22.88 91.5758 22.08 90.1465 20.48ZM94.5625 11.008C93.9225 11.7333 93.6025 12.7573 93.6025 14.08C93.6025 15.4027 93.9225 16.4267 94.5625 17.152C95.2025 17.8773 96.0558 18.24 97.1225 18.24C98.1892 18.24 99.0425 17.8773 99.6825 17.152C100.322 16.4267 100.642 15.4027 100.642 14.08C100.642 12.7573 100.322 11.7333 99.6825 11.008C99.0425 10.2827 98.1892 9.91999 97.1225 9.91999C96.0558 9.91999 95.2025 10.2827 94.5625 11.008Z" fill="#111111"/>
</svg>
